<?xml version="1.0" encoding="iso-8859-1"?>
<!-- Uploaded to: SVG Repo, www.svgrepo.com, Generator: SVG Repo Mixer Tools -->
<svg version="1.1" id="Layer_1" xmlns="http://www.w3.org/2000/svg" xmlns:xlink="http://www.w3.org/1999/xlink" 
	 viewBox="0 0 512 512" xml:space="preserve">
<polygon style="fill:#434449;" points="501.514,59.108 454.391,59.108 454.391,11.449 421.14,11.449 421.14,59.108 373.461,59.108 
	373.461,92.359 421.14,92.359 421.14,211.442 454.391,211.442 454.391,92.359 501.514,92.359 "/>
<path style="fill:#FFA036;" d="M488.464,307.899v39.985c0,17.485-14.307,31.792-31.792,31.792l0,0
	c-17.485,0-31.792-14.307-31.792-31.792v-39.985H488.464z"/>
<rect x="10.501" y="273.805" style="fill:#526885;" width="203.055" height="158.501"/>
<rect x="10.501" y="273.805" style="fill:#C8DFE5;" width="203.055" height="128.522"/>
<path style="fill:#434449;" d="M213.885,318.125v20.355c0,6.8-4.089,12.934-10.366,15.55l-67.248,28.02
	c-14.207,5.92-23.461,22.01-23.461,37.401v81.1h286.38v-81.1c0-15.39-9.255-31.482-23.461-37.401l-67.248-28.02
	c-6.278-2.615-10.366-8.75-10.366-15.55v-20.355H213.885z"/>
<path style="fill:#FEBBA0;" d="M350.041,198.158v-30.446c0-51.835-42.022-93.857-93.857-93.857
	c-51.836,0-93.857,42.022-93.857,93.857h-0.368v30.446c-12.926,0-23.406,10.479-23.406,23.406s10.479,23.406,23.406,23.406v17.474
	c1.126,14.736,8.312,27.856,19.194,35.042l56.58,32.346c11.361,7.503,25.176,7.503,36.537,0l56.411-32.346
	c10.881-7.186,18.234-20.306,19.362-35.042v-17.474c12.926,0,23.406-10.479,23.406-23.406
	C373.447,208.637,362.967,198.158,350.041,198.158z"/>
<path style="fill:#703E41;" d="M300.789,175.24c18.279,0,35.167-5.93,48.872-15.952c-4.261-47.888-44.481-85.432-93.477-85.432
	c-47.294,0-86.411,34.982-92.904,80.481c25.081-0.116,47.142-12.98,60.057-32.443C235.242,153.08,265.42,175.24,300.789,175.24z"/>
<path d="M10.586,511h-0.137C4.678,511,0,506.322,0,500.551c0-5.771,4.678-10.449,10.449-10.449h0.137
	c5.771,0,10.449,4.678,10.449,10.449C21.035,506.322,16.357,511,10.586,511z"/>
<path d="M501.551,510.999h-0.137c-5.771,0-10.449-4.678-10.449-10.449c0-5.771,4.678-10.449,10.449-10.449h0.137
	c5.771,0,10.449,4.678,10.449,10.449C512,506.321,507.322,510.999,501.551,510.999z"/>
<path d="M294.106,234.473c-6.441,0-11.68-5.239-11.68-11.679c0-6.441,5.239-11.68,11.68-11.68c6.441,0,11.68,5.239,11.68,11.68
	C305.786,229.234,300.547,234.473,294.106,234.473z"/>
<path d="M217.894,234.473c-6.441,0-11.68-5.239-11.68-11.679c0-6.441,5.239-11.68,11.68-11.68s11.68,5.239,11.68,11.68
	C229.572,229.234,224.333,234.473,217.894,234.473z"/>
<path d="M256.044,291.453c-11.391,0-20.66-9.268-20.66-20.66c0-5.771,4.678-10.449,10.449-10.449h20.422
	c5.771,0,10.449,4.678,10.449,10.449C276.703,282.186,267.435,291.453,256.044,291.453z"/>
<path d="M454.391,221.89H421.14c-5.771,0-10.449-4.678-10.449-10.449V102.808h-37.23c-5.771,0-10.449-4.678-10.449-10.449V59.108
	c0-5.771,4.678-10.449,10.449-10.449h37.23v-37.21C410.691,5.678,415.369,1,421.14,1h33.251c5.771,0,10.449,4.678,10.449,10.449
	v37.21h36.676c5.771,0,10.449,4.678,10.449,10.449v33.251c0,5.771-4.678,10.449-10.449,10.449H464.84v108.635
	C464.84,217.212,460.162,221.89,454.391,221.89z M431.589,200.992h12.353V92.359c0-5.771,4.678-10.449,10.449-10.449h36.676V69.557
	h-36.676c-5.771,0-10.449-4.678-10.449-10.449v-37.21h-12.353v37.21c0,5.771-4.678,10.449-10.449,10.449h-37.23V81.91h37.23
	c5.771,0,10.449,4.678,10.449,10.449V200.992z"/>
<path d="M75.253,312.389h-6.45v-3.653c0-5.771-4.678-10.449-10.449-10.449s-10.449,4.678-10.449,10.449v3.653h-6.45
	c-5.771,0-10.449,4.678-10.449,10.449c0,5.771,4.678,10.449,10.449,10.449h6.45v25.652c0,5.771,4.678,10.449,10.449,10.449
	s10.449-4.678,10.449-10.449v-25.652h6.45c5.771,0,10.449-4.678,10.449-10.449C85.701,317.067,81.023,312.389,75.253,312.389z"/>
<path d="M326.185,455.098h-0.137c-5.771,0-10.449,4.678-10.449,10.449c0,5.771,4.678,10.449,10.449,10.449h0.137
	c5.771,0,10.449-4.678,10.449-10.449C336.634,459.776,331.956,455.098,326.185,455.098z"/>
<path d="M488.464,297.449h-63.585c-5.771,0-10.449,4.678-10.449,10.449v39.985c0,19.687,13.538,36.268,31.792,40.931v44.953h-5.224
	c-5.771,0-10.449,4.678-10.449,10.449c0,5.771,4.678,10.449,10.449,10.449h31.347c5.771,0,10.449-4.678,10.449-10.449
	c0-5.771-4.678-10.449-10.449-10.449h-5.224v-44.953c18.254-4.662,31.792-21.244,31.792-40.931v-39.985
	C498.913,302.128,494.235,297.449,488.464,297.449z M478.015,347.884c0,11.769-9.574,21.343-21.343,21.343
	s-21.343-9.574-21.343-21.343v-29.536h42.687v29.536H478.015z"/>
<path d="M270.941,446.437h-4.507v-8.592c0-5.771-4.678-10.449-10.449-10.449c-5.771,0-10.449,4.678-10.449,10.449v8.592h-4.507
	c-5.771,0-10.449,4.678-10.449,10.449c0,5.771,4.678,10.449,10.449,10.449h4.507v11.273c0,5.771,4.678,10.449,10.449,10.449
	c5.771,0,10.449-4.678,10.449-10.449v-11.273h4.507c5.771,0,10.449-4.678,10.449-10.449
	C281.39,451.115,276.712,446.437,270.941,446.437z"/>
<path d="M467.61,490.102h-57.97v-70.651c0-20.367-12.292-39.713-29.891-47.047l-67.248-28.019c-2.391-0.996-3.936-3.313-3.936-5.905
	V322.21l27.313-15.661c0.19-0.109,0.377-0.225,0.561-0.346c13.676-9.031,22.657-25.093,24.022-42.965
	c0.021-0.264,0.03-0.531,0.03-0.796v-8.675c13.569-4.414,23.405-17.182,23.405-32.205c0-15.023-9.836-27.791-23.405-32.205V167.71
	c0-57.514-46.792-104.306-104.306-104.306c-56.546,0-102.727,45.228-104.266,101.408c-0.265,0.92-0.408,1.892-0.408,2.897v21.647
	c-13.569,4.414-23.405,17.182-23.405,32.205c0,15.022,9.836,27.791,23.405,32.205v8.675c0,0.265,0.01,0.532,0.03,0.796
	c0.003,0.041,0.009,0.08,0.013,0.12H10.5c-5.771,0-10.449,4.678-10.449,10.449v158.505c0,5.771,4.678,10.449,10.449,10.449h91.861
	v47.34H44.39c-5.771,0-10.449,4.678-10.449,10.449c0,5.771,4.678,10.449,10.449,10.449H467.61c5.771,0,10.449-4.678,10.449-10.449
	C478.059,494.779,473.381,490.102,467.61,490.102z M256.184,84.303c41.393,0,75.823,30.312,82.298,69.902
	c-11.336,6.939-24.248,10.585-37.694,10.585c-29.842,0-57.044-18.737-67.691-46.623c-1.396-3.657-4.719-6.227-8.609-6.659
	c-3.892-0.436-7.696,1.347-9.86,4.608c-8.928,13.454-22.54,22.722-37.894,26.221C187.499,108.716,219.038,84.303,256.184,84.303z
	 M149.003,221.563c0-7.144,5.813-12.956,12.956-12.956c5.771,0,10.449-4.678,10.449-10.449v-27.69
	c0.239-0.878,0.368-1.802,0.368-2.756c0-1.187,0.041-2.366,0.09-3.541c18.277-2.195,35.211-10.379,48.23-23.21
	c6.659,10.921,15.521,20.386,26.167,27.855c15.735,11.038,34.243,16.873,53.526,16.873c13.569,0,26.718-2.885,38.803-8.431v20.901
	c0,5.771,4.678,10.449,10.449,10.449c7.144,0,12.956,5.813,12.956,12.956c0,7.143-5.813,12.956-12.956,12.956
	c-5.771,0-10.449,4.678-10.449,10.449v17.052c-0.949,11.05-6.443,21.176-14.42,26.577l-56.101,32.167
	c-0.191,0.11-0.377,0.225-0.561,0.346c-0.658,0.436-1.331,0.82-2.01,1.182v-10.489c0-5.771-4.678-10.449-10.449-10.449
	s-10.449,4.678-10.449,10.449v10.541c-0.714-0.376-1.42-0.777-2.112-1.235c-0.187-0.123-0.377-0.241-0.573-0.352l-56.264-32.165
	c-7.985-5.406-13.285-15.293-14.246-26.572v-17.054c0-5.771-4.678-10.449-10.449-10.449
	C154.815,234.519,149.003,228.707,149.003,221.563z M290.362,350.328l-34.258,44.724l-34.363-44.937
	c1.675-3.563,2.592-7.518,2.592-11.635v-4.275l7.939,4.538c7.334,4.764,15.531,7.145,23.728,7.145
	c8.199,0,16.398-2.383,23.733-7.149l7.933-4.548v4.288C287.667,342.681,288.623,346.711,290.362,350.328z M102.36,419.451v2.414
	H20.949v-9.084h64.784c5.771,0,10.449-4.678,10.449-10.449c0-5.771-4.678-10.449-10.449-10.449H20.949V284.258h80.401v80.98
	c0,5.771,4.678,10.449,10.449,10.449c5.771,0,10.449-4.678,10.449-10.449v-80.98h34.725c4.174,9.043,10.497,16.712,18.423,21.946
	c0.187,0.123,0.378,0.24,0.573,0.352l27.469,15.704v16.221c0,2.59-1.545,4.908-3.936,5.905l-67.249,28.02
	C114.652,379.739,102.36,399.085,102.36,419.451z M123.258,419.451c0-11.777,7.322-23.71,17.031-27.756l65.932-27.471l41.575,54.368
	c1.977,2.584,5.044,4.1,8.296,4.101c0.001,0,0.002,0,0.004,0c3.251,0,6.317-1.514,8.294-4.095l41.587-54.291l65.731,27.388
	c9.709,4.046,17.031,15.978,17.031,27.756v35.647h-28.752c-5.771,0-10.449,4.678-10.449,10.449c0,5.771,4.678,10.449,10.449,10.449
	h28.754v14.106H123.258V419.451z"/>
</svg>